<svg width="62" height="32" viewBox="0 0 62 32" fill="none" xmlns="http://www.w3.org/2000/svg">
<path fill-rule="evenodd" clip-rule="evenodd" d="M0 0H11.23C19.2945 0 25.0516 7.6131 25.0516 14.7911V17.0666C25.0516 24.2446 19.2945 31.8578 11.23 31.8578H0V0ZM23.3239 14.7911C23.3239 8.31579 18.1144 1.70667 11.23 1.70667H1.7277V30.1511H11.23C18.1144 30.1511 23.3239 23.542 23.3239 17.0667V14.7911Z" fill="#1E0606"/>
<path d="M28.7949 0H30.5226V30.2933H39.737V32H28.7949V0Z" fill="#1E0606"/>
<path d="M42.0406 0V31.8578H43.7683V16.8512L44.1924 16.4323L59.5748 31.8578H62L45.4141 15.2255L60.8272 0H58.3839L43.7683 14.4377V0H42.0406Z" fill="#1E0606"/>
</svg>
